<svg width="362" height="362" fill="none" xmlns="http://www.w3.org/2000/svg"><g filter="url(#a)"><path fill="#F2F0F9" d="M6 6h350v350H6z"/><path d="m307 32 20 20M307 52l20-20" stroke="#6E6893" stroke-width="3" stroke-linecap="round"/><path d="m136 115 90 90M136 205l90-90" stroke="#D80101" stroke-width="3" stroke-linecap="round"/><path d="M55.668 242.909h2.691v4.219c0 .503.088.908.262 1.214.175.303.446.522.812.659.371.132.846.198 1.426.198.204 0 .445-.007.722-.019.277-.017.563-.041.856-.071.299-.029.58-.066.844-.108a4.82 4.82 0 0 0 .659-.147v2.186a4.858 4.858 0 0 1-.671.16c-.265.042-.544.081-.838.115-.294.029-.58.053-.856.07a11.97 11.97 0 0 1-.716.026c-1.053 0-1.97-.15-2.749-.448-.78-.302-1.383-.769-1.809-1.4-.422-.63-.633-1.442-.633-2.435v-4.219Zm7.792 0h2.704V256H63.46v-13.091Zm6.743 2.282v-2.282h10.751v2.282h-4.007V256H74.21v-10.809h-4.008Zm25.754 4.264c0 1.427-.27 2.642-.812 3.643-.537 1.001-1.27 1.766-2.199 2.295-.924.524-1.964.786-3.119.786-1.163 0-2.207-.264-3.132-.793-.925-.528-1.655-1.293-2.192-2.294-.537-1.002-.806-2.214-.806-3.637 0-1.428.269-2.643.805-3.644.538-1.001 1.268-1.764 2.193-2.288.925-.529 1.969-.793 3.132-.793 1.155 0 2.195.264 3.12.793.928.524 1.661 1.287 2.198 2.288.541 1.001.812 2.216.812 3.644Zm-2.806 0c0-.925-.138-1.705-.415-2.34-.273-.635-.659-1.116-1.157-1.445-.5-.328-1.083-.492-1.752-.492s-1.253.164-1.751.492c-.499.329-.887.81-1.164 1.445-.272.635-.409 1.415-.409 2.34 0 .924.137 1.704.41 2.339.276.635.664 1.117 1.163 1.445.498.328 1.082.492 1.751.492.67 0 1.253-.164 1.752-.492.498-.328.884-.81 1.157-1.445.276-.635.415-1.415.415-2.339Zm12.722-1.081v2.161h-5.97v-2.161h5.97Zm3.128-3.183v-2.282h10.752v2.282h-4.008V256h-2.736v-10.809h-4.008Zm25.755 4.264c0 1.427-.271 2.642-.812 3.643-.537 1.001-1.27 1.766-2.199 2.295-.925.524-1.965.786-3.119.786-1.164 0-2.208-.264-3.133-.793-.924-.528-1.655-1.293-2.192-2.294-.537-1.002-.805-2.214-.805-3.637 0-1.428.268-2.643.805-3.644.537-1.001 1.268-1.764 2.192-2.288.925-.529 1.969-.793 3.133-.793 1.154 0 2.194.264 3.119.793.929.524 1.662 1.287 2.199 2.288.541 1.001.812 2.216.812 3.644Zm-2.807 0c0-.925-.138-1.705-.415-2.34-.273-.635-.658-1.116-1.157-1.445-.499-.328-1.082-.492-1.751-.492-.67 0-1.253.164-1.752.492-.498.329-.886.81-1.163 1.445-.273.635-.409 1.415-.409 2.34 0 .924.136 1.704.409 2.339.277.635.665 1.117 1.163 1.445.499.328 1.082.492 1.752.492.669 0 1.252-.164 1.751-.492.499-.328.884-.81 1.157-1.445.277-.635.415-1.415.415-2.339Zm23.751-6.546V256h-2.735v-10.841h-5.293V256h-2.736v-13.091H155.7Zm16.465 6.546c0 1.427-.27 2.642-.812 3.643-.536 1.001-1.269 1.766-2.198 2.295-.925.524-1.965.786-3.12.786-1.163 0-2.207-.264-3.132-.793-.925-.528-1.655-1.293-2.192-2.294-.537-1.002-.806-2.214-.806-3.637 0-1.428.269-2.643.806-3.644.537-1.001 1.267-1.764 2.192-2.288.925-.529 1.969-.793 3.132-.793 1.155 0 2.195.264 3.12.793.929.524 1.662 1.287 2.198 2.288.542 1.001.812 2.216.812 3.644Zm-2.806 0c0-.925-.138-1.705-.415-2.34-.273-.635-.659-1.116-1.157-1.445-.499-.328-1.083-.492-1.752-.492s-1.253.164-1.751.492c-.499.329-.886.81-1.163 1.445-.273.635-.41 1.415-.41 2.34 0 .924.137 1.704.41 2.339.277.635.664 1.117 1.163 1.445.498.328 1.082.492 1.751.492.669 0 1.253-.164 1.752-.492.498-.328.884-.81 1.157-1.445.277-.635.415-1.415.415-2.339Zm7.181-6.546h2.703v10.867h3.759v-10.867h2.691v10.867h3.714v-10.867h2.691V256H176.54v-13.091ZM195.985 256v-2.224l.371-.032c.477-.039.863-.22 1.157-.544.294-.328.513-.85.658-1.566.149-.72.245-1.687.288-2.902l.217-5.823h8.885V256h-2.691v-10.873h-3.624l-.205 4.558c-.068 1.466-.243 2.663-.524 3.592-.277.929-.72 1.615-1.33 2.058-.605.443-1.434.665-2.486.665h-.716Zm27.688-6.545c0 1.427-.271 2.642-.812 3.643-.537 1.001-1.27 1.766-2.199 2.295-.925.524-1.964.786-3.119.786-1.164 0-2.208-.264-3.132-.793-.925-.528-1.656-1.293-2.193-2.294-.537-1.002-.805-2.214-.805-3.637 0-1.428.268-2.643.805-3.644.537-1.001 1.268-1.764 2.193-2.288.924-.529 1.968-.793 3.132-.793 1.155 0 2.194.264 3.119.793.929.524 1.662 1.287 2.199 2.288.541 1.001.812 2.216.812 3.644Zm-2.806 0c0-.925-.139-1.705-.416-2.34-.273-.635-.658-1.116-1.157-1.445-.498-.328-1.082-.492-1.751-.492-.669 0-1.253.164-1.752.492-.498.329-.886.81-1.163 1.445-.273.635-.409 1.415-.409 2.34 0 .924.136 1.704.409 2.339.277.635.665 1.117 1.163 1.445.499.328 1.083.492 1.752.492s1.253-.164 1.751-.492c.499-.328.884-.81 1.157-1.445.277-.635.416-1.415.416-2.339ZM233.489 256v-13.091h2.768v5.401h5.618v-5.401h2.762V256h-2.762v-5.408h-5.618V256h-2.768Zm15.23 0v-13.091h8.821v2.282h-6.054v3.119h5.6v2.282h-5.6v3.126h6.079V256h-8.846Zm18.289-10.809v-2.282h10.751v2.282h-4.008V256h-2.736v-10.809h-4.007ZM281.986 256h-2.966l4.52-13.091h3.566L291.619 256h-2.966l-3.279-10.099h-.102L281.986 256Zm-.185-5.146h7.006v2.161h-7.006v-2.161ZM302.915 256l-4.206-5.58h-.946V256h-2.768v-13.091h2.768v5.229h.556l4.346-5.229h3.446l-5.108 6.073 5.344 7.018h-3.432Z" fill="#6E6893"/></g><defs><filter id="a" x="0" y="0" width="362" height="362" filterUnits="userSpaceOnUse" color-interpolation-filters="sRGB"><feFlood flood-opacity="0" result="BackgroundImageFix"/><feColorMatrix in="SourceAlpha" values="0 0 0 0 0 0 0 0 0 0 0 0 0 0 0 0 0 0 127 0" result="hardAlpha"/><feOffset/><feGaussianBlur stdDeviation="3"/><feComposite in2="hardAlpha" operator="out"/><feColorMatrix values="0 0 0 0 0 0 0 0 0 0 0 0 0 0 0 0 0 0 0.25 0"/><feBlend in2="BackgroundImageFix" result="effect1_dropShadow_104_344"/><feBlend in="SourceGraphic" in2="effect1_dropShadow_104_344" result="shape"/></filter></defs></svg>