<svg width="36" height="36" fill="none" xmlns="http://www.w3.org/2000/svg"><g clip-path="url(#a)"><path d="M10.5 27a2.996 2.996 0 0 0-2.985 3c0 1.65 1.335 3 2.985 3s3-1.35 3-3-1.35-3-3-3Zm-9-24v3h3l5.4 11.385-2.025 3.675A2.9 2.9 0 0 0 7.5 22.5c0 1.65 1.35 3 3 3h18v-3H11.13a.371.371 0 0 1-.375-.375l.045-.18 1.35-2.445h11.175a2.986 2.986 0 0 0 2.625-1.545l5.37-9.735c.12-.21.18-.465.18-.72 0-.825-.675-1.5-1.5-1.5H7.815l-1.41-3H1.5Zm24 24a2.996 2.996 0 0 0-2.985 3c0 1.65 1.335 3 2.985 3s3-1.35 3-3-1.35-3-3-3Z" fill="#2D2D2D"/><circle cx="29" cy="7" r="7" fill="#fff"/><path d="M31.867 10.39c.187 0 .334.054.441.161.112.103.168.24.168.413V12h-6.944v-.574a.974.974 0 0 1 .308-.714l3.073-3.08c.257-.261.485-.511.686-.749a4.7 4.7 0 0 0 .511-.707c.135-.233.238-.469.308-.707.075-.243.112-.497.112-.763a1.77 1.77 0 0 0-.105-.637 1.25 1.25 0 0 0-.301-.469 1.161 1.161 0 0 0-.462-.28 1.733 1.733 0 0 0-.602-.098c-.205 0-.397.03-.574.091a1.461 1.461 0 0 0-.462.245c-.135.103-.25.224-.343.364a1.6 1.6 0 0 0-.21.462c-.08.215-.182.357-.308.427s-.308.086-.546.049l-.91-.161c.07-.485.205-.91.406-1.274.2-.369.45-.674.749-.917a3.078 3.078 0 0 1 1.036-.553 4.094 4.094 0 0 1 1.26-.189c.467 0 .894.07 1.281.21.387.135.719.329.994.581.275.252.49.555.644.91.154.355.231.749.231 1.183 0 .373-.056.719-.168 1.036a4.09 4.09 0 0 1-.441.91c-.182.29-.397.57-.644.84s-.506.546-.777.826l-2.282 2.331c.22-.065.436-.114.651-.147.22-.037.427-.056.623-.056h2.597Z" fill="#3670C7"/></g><defs><clipPath id="a"><path fill="#fff" d="M0 0h36v36H0z"/></clipPath></defs></svg>